<svg width="187" height="169" viewBox="0 0 187 169" fill="none" xmlns="http://www.w3.org/2000/svg">
<g clip-path="url(#clip0_12_3)">
<path d="M28.6495 117.487C28.6196 116.088 28.92 114.698 29.5323 113.401C30.1447 112.104 31.0565 110.928 32.2126 109.942C33.3687 108.956 34.7452 108.182 36.2591 107.666C37.773 107.15 39.3928 106.903 41.0209 106.94C44.2764 106.94 47.3986 108.051 49.7006 110.029C52.0026 112.007 53.2958 114.689 53.2958 117.487C53.2958 120.284 52.0026 122.966 49.7006 124.944C47.3986 126.922 44.2764 128.033 41.0209 128.033C39.3928 128.07 37.773 127.823 36.2591 127.307C34.7452 126.791 33.3687 126.017 32.2126 125.031C31.0565 124.046 30.1447 122.869 29.5323 121.572C28.92 120.276 28.6196 118.886 28.6495 117.487ZM44.9035 121.838C49.8834 116.596 44.3127 109.457 37.1624 113.115C32.0016 118.388 37.8015 125.547 44.9035 121.838Z" fill="#259BBF"/>
<path d="M57.0941 117.487C57.0749 115.381 57.7842 113.318 59.132 111.559C60.4797 109.8 62.4051 108.424 64.6639 107.607C66.9227 106.79 69.4132 106.567 71.8193 106.968C74.2254 107.369 76.4388 108.375 78.1786 109.858C79.9185 111.341 81.1064 113.235 81.5916 115.299C82.0768 117.363 81.8375 119.505 80.904 121.452C79.9706 123.399 78.385 125.064 76.3485 126.236C74.312 127.408 71.9164 128.033 69.4654 128.033C67.8374 128.07 66.2175 127.823 64.7036 127.307C63.1898 126.791 61.8133 126.017 60.6571 125.031C59.501 124.046 58.5893 122.869 57.9769 121.572C57.3645 120.276 57.0642 118.886 57.0941 117.487ZM73.3481 121.838C78.328 116.596 72.7572 109.457 65.6069 113.115C60.4461 118.388 66.2339 125.547 73.3481 121.838Z" fill="#259BBF"/>
<path d="M86.467 102.164C86.467 99.7289 90 98.0195 92.9542 100.744V126.645C90 129.308 86.467 127.681 86.467 125.215V102.164ZM94.7629 119.517C94.1845 118.942 93.8713 118.205 93.8826 117.445C93.9146 116.749 94.2063 116.081 94.7146 115.539L102.263 107.81C102.528 107.521 102.867 107.288 103.254 107.13C103.641 106.972 104.065 106.893 104.494 106.898C104.894 106.883 105.294 106.937 105.669 107.059C106.045 107.18 106.388 107.365 106.677 107.603C106.967 107.841 107.197 108.128 107.355 108.445C107.512 108.761 107.593 109.102 107.592 109.447C107.61 110.059 107.361 110.654 106.893 111.115L100.961 117.165L107.086 123.382C107.576 123.886 107.852 124.518 107.87 125.174C107.857 125.917 107.505 126.626 106.889 127.147C106.273 127.669 105.443 127.961 104.578 127.961C104.113 127.949 103.656 127.85 103.239 127.671C102.823 127.492 102.457 127.238 102.166 126.925L94.7629 119.517Z" fill="#259BBF"/>
<path d="M110.137 117.487C110.118 115.381 110.827 113.318 112.175 111.559C113.522 109.8 115.448 108.424 117.706 107.607C119.965 106.79 122.456 106.567 124.862 106.968C127.268 107.369 129.481 108.375 131.221 109.858C132.961 111.341 134.149 113.235 134.634 115.299C135.119 117.363 134.88 119.505 133.947 121.452C133.013 123.399 131.428 125.064 129.391 126.236C127.355 127.408 124.959 128.033 122.508 128.033C120.88 128.07 119.26 127.823 117.746 127.307C116.232 126.791 114.856 126.017 113.7 125.031C112.544 124.046 111.632 122.869 111.019 121.572C110.407 120.276 110.107 118.886 110.137 117.487ZM126.391 121.838C131.383 116.596 125.812 109.457 118.65 113.115C113.489 118.388 119.289 125.547 126.391 121.838Z" fill="#259BBF"/>
<path d="M139.51 116.295C139.51 113.866 140.633 111.537 142.632 109.819C144.631 108.102 147.342 107.137 150.169 107.137C152.996 107.137 155.707 108.102 157.706 109.819C159.705 111.537 160.828 113.866 160.828 116.295V126.656C157.874 129.318 154.341 127.692 154.341 125.226V116.078C154.341 113.488 152.484 112.089 150.169 112.089C147.854 112.089 145.997 113.488 145.997 116.078V126.656C143.043 129.318 139.51 127.692 139.51 125.226V116.295Z" fill="#259BBF"/>
<path d="M165.458 117.487C165.428 116.088 165.729 114.698 166.341 113.401C166.953 112.104 167.865 110.928 169.021 109.942C170.177 108.956 171.554 108.182 173.068 107.666C174.582 107.15 176.202 106.903 177.83 106.94C180.732 106.894 183.557 107.739 185.8 109.323C186.145 109.573 186.428 109.882 186.63 110.229C186.832 110.577 186.95 110.956 186.976 111.343C187.002 111.731 186.935 112.12 186.781 112.485C186.626 112.85 186.387 113.184 186.077 113.467L180.048 119.6C179.784 119.888 179.447 120.12 179.062 120.278C178.678 120.436 178.256 120.516 177.83 120.512C177.428 120.529 177.027 120.475 176.65 120.355C176.273 120.234 175.929 120.049 175.638 119.811C175.347 119.572 175.115 119.286 174.957 118.968C174.799 118.651 174.718 118.309 174.719 117.963C174.698 117.351 174.948 116.755 175.418 116.295L179.397 112.358C178.874 112.217 178.329 112.147 177.781 112.151C176.189 112.236 174.694 112.84 173.601 113.839C172.508 114.838 171.9 116.157 171.9 117.528C171.9 118.899 172.508 120.219 173.601 121.218C174.694 122.217 176.189 122.82 177.781 122.905C179.11 122.905 180.395 122.493 181.399 121.745C182.327 121.071 182.978 120.47 184.232 120.47C184.649 120.456 185.065 120.515 185.455 120.644C185.844 120.772 186.199 120.967 186.498 121.217C186.797 121.467 187.034 121.767 187.193 122.098C187.353 122.429 187.433 122.785 187.428 123.143C187.374 123.828 187.046 124.476 186.499 124.977C185.378 125.997 184.018 126.801 182.51 127.337C181.001 127.872 179.377 128.128 177.745 128.085C176.119 128.112 174.503 127.856 172.995 127.333C171.487 126.809 170.118 126.029 168.97 125.038C167.822 124.048 166.919 122.869 166.316 121.571C165.712 120.273 165.42 118.884 165.458 117.487Z" fill="#259BBF"/>
<path d="M12.4196 106.463C11.1047 106.462 9.79666 106.626 8.53697 106.95C7.85792 107.133 7.19671 107.362 6.55948 107.634V99.8843C6.56326 99.3291 6.43712 98.7788 6.18855 98.2662C5.93999 97.7537 5.57407 97.2892 5.11254 96.9006C4.65875 96.5027 4.11628 96.1876 3.51754 95.974C2.9188 95.7604 2.27609 95.6527 1.62781 95.6573C1.19817 95.6573 0.785945 95.8032 0.481015 96.0633C0.176085 96.3234 0.0031797 96.6764 -2.83308e-06 97.0456V117.072C-0.0367653 118.478 0.260087 119.876 0.872464 121.181C1.48484 122.485 2.39992 123.669 3.56193 124.659C4.72395 125.65 6.10856 126.427 7.63139 126.943C9.15423 127.459 10.7834 127.703 12.4196 127.66C12.8992 127.663 13.3785 127.639 13.8545 127.588C16.976 127.272 19.8392 125.944 21.8584 123.874C23.8776 121.805 24.9001 119.151 24.7168 116.455C24.5335 113.759 23.1583 111.225 20.8723 109.371C18.5864 107.518 15.5626 106.485 12.4196 106.484V106.463ZM6.55948 117.072C6.52725 116.387 6.6538 115.703 6.93179 115.059C7.20977 114.416 7.63366 113.827 8.17884 113.326C8.72402 112.825 9.37963 112.422 10.1076 112.14C10.8356 111.858 11.6215 111.703 12.4196 111.685C13.5456 111.687 14.6455 111.977 15.5794 112.517C16.5134 113.058 17.2392 113.825 17.6648 114.72C17.9636 115.316 18.1469 115.949 18.2074 116.596C18.2074 116.751 18.2074 116.906 18.2074 117.072C18.2076 117.597 18.1265 118.12 17.9662 118.626C17.8106 119.115 17.5751 119.582 17.2669 120.015C16.766 120.761 16.0402 121.377 15.1658 121.798C14.2915 122.219 13.3011 122.43 12.299 122.408C10.7414 122.364 9.26587 121.797 8.19013 120.828C7.11439 119.86 6.52448 118.567 6.54742 117.228L6.55948 117.072Z" fill="#259BBF"/>
<path d="M128.489 59.8726C128.489 75.2888 115.828 87.6902 97.7894 89.3064C101.807 86.107 105.012 82.228 107.201 77.9132C109.39 73.5985 110.517 68.9412 110.51 64.2343C110.507 63.0092 110.43 61.7851 110.281 60.5667C110.197 59.8933 110.088 59.2095 109.956 58.4946C109.787 56.7008 109.273 54.9435 108.436 53.2937C107.245 50.7843 105.213 48.6353 102.599 47.1191C99.9839 45.603 96.9043 44.788 93.75 44.7775C84.2484 44.7775 77.3513 51.719 77.3513 59.8726V33.5261C79.131 32.7483 80.987 32.1069 82.8979 31.6095C86.4162 30.6944 90.0741 30.2369 93.75 30.2523C113.923 30.2523 128.489 43.3271 128.489 59.8726Z" fill="url(#paint0_linear_12_3)"/>
<path d="M107.363 68.2645C104.732 72.4197 100.62 75.7407 95.6304 77.7399C90.6408 79.7392 85.0367 80.3114 79.6408 79.3725C74.2448 78.4337 69.3413 76.0332 65.6501 72.5236C61.9588 69.0139 59.6743 64.58 59.1318 59.8726C59.1318 59.4789 59.0474 59.0852 59.0354 58.6811C59.0233 58.2771 59.0354 57.9974 59.0354 57.6451V3.90586C59.0338 3.39342 59.1499 2.88576 59.377 2.41194C59.6042 1.93811 59.9379 1.50745 60.359 1.14463C60.7802 0.781797 61.2805 0.49393 61.8314 0.297515C62.3822 0.101101 62.9727 -1.8123e-06 63.5691 0V0C67.2276 0 70.7362 1.24872 73.3231 3.47145C75.91 5.69418 77.3634 8.70885 77.3634 11.8523V60.546C77.3356 64.2758 79.0017 67.8679 82.0076 70.559C85.0135 73.25 89.1222 74.8279 93.4606 74.9573C96.2627 75.0116 99.0305 74.4193 101.476 73.2422C103.921 72.065 105.954 70.3461 107.363 68.2645Z" fill="url(#paint1_linear_12_3)"/>
<path d="M110.51 64.2343C110.517 68.9412 109.39 73.5985 107.201 77.9132C105.012 82.228 101.807 86.107 97.7894 89.3064C96.4519 89.4316 95.1075 89.4939 93.7621 89.4929C73.5892 89.4929 58.9992 76.4077 58.9992 59.8726V57.6555C58.9992 57.9973 58.9992 58.3392 58.9992 58.6915C58.9992 59.0437 59.0595 59.4892 59.0957 59.8829C59.6381 64.5903 61.9227 69.0243 65.6139 72.5339C69.3052 76.0436 74.2087 78.444 79.6046 79.3829C85.0005 80.3217 90.6046 79.7495 95.5942 77.7503C100.584 75.751 104.696 72.43 107.327 68.2748V68.2023C108.172 66.9846 108.821 65.6742 109.256 64.3068C109.258 64.2827 109.258 64.2584 109.256 64.2343C109.699 62.8152 109.922 61.3521 109.92 59.8829C109.92 59.4271 109.92 58.9816 109.92 58.5361C110.052 59.2095 110.161 59.8933 110.245 60.6082C110.405 61.8123 110.493 63.0225 110.51 64.2343Z" fill="url(#paint2_linear_12_3)"/>
<path d="M64.3819 138.033C64.3819 137.372 64.6165 136.807 65.0859 136.337C65.5552 135.868 66.1205 135.633 66.7819 135.633H72.1579C73.2459 135.633 74.2379 135.825 75.1339 136.209C76.0512 136.572 76.8299 137.073 77.4699 137.713C78.1099 138.353 78.6112 139.1 78.9739 139.953C79.3365 140.807 79.5179 141.713 79.5179 142.673C79.5179 143.633 79.3365 144.54 78.9739 145.393C78.6112 146.247 78.1099 146.993 77.4699 147.633C76.8299 148.273 76.0512 148.785 75.1339 149.169C74.2379 149.532 73.2459 149.713 72.1579 149.713H72.0619C71.4432 149.713 70.9099 149.5 70.4619 149.073C70.0352 148.625 69.8219 148.092 69.8219 147.473C69.8219 146.855 70.0352 146.332 70.4619 145.905C70.9099 145.457 71.4432 145.233 72.0619 145.233C72.7445 145.212 73.3312 144.956 73.8219 144.465C74.3125 143.975 74.5579 143.377 74.5579 142.673C74.5579 141.969 74.3019 141.372 73.7899 140.881C73.2992 140.369 72.7019 140.113 71.9979 140.113H69.1819V155.953C69.1819 156.615 68.9472 157.18 68.4779 157.649C68.0085 158.119 67.4432 158.353 66.7819 158.353C66.1205 158.353 65.5552 158.119 65.0859 157.649C64.6165 157.18 64.3819 156.615 64.3819 155.953V138.033ZM93.9414 158.353C92.32 158.353 90.8054 158.055 89.3974 157.457C87.9894 156.86 86.7627 156.049 85.7174 155.025C84.6934 153.98 83.8827 152.753 83.2854 151.345C82.688 149.937 82.3894 148.433 82.3894 146.833C82.3894 145.233 82.688 143.729 83.2854 142.321C83.8827 140.913 84.6934 139.697 85.7174 138.673C86.7627 137.628 87.9894 136.807 89.3974 136.209C90.8054 135.612 92.32 135.313 93.9414 135.313C95.5627 135.313 97.0667 135.612 98.4534 136.209C99.8614 136.807 101.088 137.628 102.133 138.673C103.179 139.697 104 140.913 104.597 142.321C105.195 143.729 105.493 145.233 105.493 146.833C105.493 148.433 105.195 149.937 104.597 151.345C104 152.753 103.179 153.98 102.133 155.025C101.088 156.049 99.8614 156.86 98.4534 157.457C97.0667 158.055 95.5627 158.353 93.9414 158.353ZM93.9414 153.713C94.8587 153.713 95.712 153.543 96.5014 153.201C97.312 152.839 98.016 152.348 98.6134 151.729C99.2107 151.089 99.68 150.353 100.021 149.521C100.363 148.689 100.533 147.793 100.533 146.833C100.533 145.873 100.363 144.977 100.021 144.145C99.68 143.313 99.2107 142.588 98.6134 141.969C98.016 141.329 97.312 140.839 96.5014 140.497C95.712 140.135 94.8587 139.953 93.9414 139.953C93.024 139.953 92.16 140.135 91.3494 140.497C90.56 140.839 89.8667 141.329 89.2694 141.969C88.672 142.588 88.2027 143.313 87.8614 144.145C87.52 144.977 87.3494 145.873 87.3494 146.833C87.3494 147.793 87.52 148.689 87.8614 149.521C88.2027 150.353 88.672 151.089 89.2694 151.729C89.8667 152.348 90.56 152.839 91.3494 153.201C92.16 153.543 93.024 153.713 93.9414 153.713ZM115.893 158.353C114.848 158.353 113.877 158.183 112.981 157.841C112.106 157.479 111.349 157.041 110.709 156.529C110.069 156.017 109.568 155.463 109.205 154.865C108.864 154.268 108.693 153.724 108.693 153.233C108.693 152.572 108.928 152.007 109.397 151.537C109.866 151.068 110.432 150.833 111.093 150.833C111.584 150.833 111.978 150.94 112.277 151.153C112.576 151.367 112.832 151.623 113.045 151.921C113.194 152.135 113.344 152.359 113.493 152.593C113.664 152.828 113.845 153.041 114.037 153.233C114.25 153.425 114.506 153.585 114.805 153.713C115.104 153.82 115.466 153.873 115.893 153.873C116.618 153.873 117.226 153.628 117.717 153.137C118.208 152.647 118.453 152.039 118.453 151.313C118.453 150.929 118.368 150.609 118.197 150.353C118.048 150.097 117.834 149.873 117.557 149.681C117.301 149.489 116.981 149.319 116.597 149.169C116.234 149.02 115.85 148.881 115.445 148.753L113.813 148.209C113.194 148.017 112.586 147.772 111.989 147.473C111.413 147.153 110.89 146.748 110.421 146.257C109.952 145.745 109.568 145.127 109.269 144.401C108.992 143.655 108.853 142.748 108.853 141.681C108.853 140.785 109.034 139.953 109.397 139.185C109.76 138.396 110.261 137.713 110.901 137.137C111.541 136.561 112.288 136.113 113.141 135.793C113.994 135.473 114.912 135.313 115.893 135.313C116.938 135.313 117.888 135.484 118.741 135.825C119.594 136.167 120.309 136.583 120.885 137.073C121.482 137.564 121.941 138.087 122.261 138.641C122.581 139.175 122.741 139.655 122.741 140.081C122.741 140.743 122.506 141.308 122.037 141.777C121.568 142.247 121.002 142.481 120.341 142.481C119.872 142.481 119.498 142.385 119.221 142.193C118.965 142.001 118.72 141.767 118.485 141.489C118.336 141.297 118.186 141.105 118.037 140.913C117.888 140.7 117.717 140.519 117.525 140.369C117.333 140.199 117.098 140.06 116.821 139.953C116.565 139.847 116.256 139.793 115.893 139.793C115.274 139.793 114.741 140.007 114.293 140.433C113.866 140.86 113.653 141.383 113.653 142.001C113.653 142.663 113.909 143.175 114.421 143.537C114.933 143.879 115.52 144.156 116.181 144.369L117.557 144.817C118.218 145.031 118.89 145.287 119.573 145.585C120.256 145.884 120.864 146.289 121.397 146.801C121.952 147.313 122.4 147.964 122.741 148.753C123.082 149.521 123.253 150.481 123.253 151.633C123.253 152.593 123.061 153.489 122.677 154.321C122.293 155.132 121.77 155.836 121.109 156.433C120.448 157.031 119.669 157.5 118.773 157.841C117.877 158.183 116.917 158.353 115.893 158.353Z" fill="#259BBF"/>
<path d="M75.1339 136.209L74.9369 136.669L74.9434 136.672L74.9501 136.674L75.1339 136.209ZM77.4699 137.713L77.8234 137.36V137.36L77.4699 137.713ZM78.9739 139.953L78.5137 140.149V140.149L78.9739 139.953ZM78.9739 145.393L79.434 145.589L78.9739 145.393ZM75.1339 149.169L75.3215 149.633L75.3269 149.631L75.1339 149.169ZM70.4619 149.073L70.0998 149.418L70.1082 149.427L70.1171 149.436L70.4619 149.073ZM70.4619 145.905L70.1083 145.552L70.4619 145.905ZM72.0619 145.233V145.733H72.0697L72.0775 145.733L72.0619 145.233ZM73.7899 140.881L73.4289 141.227L73.4362 141.235L73.4439 141.242L73.7899 140.881ZM69.1819 140.113V139.613H68.6819V140.113H69.1819ZM68.4779 157.649L68.8314 158.003L68.4779 157.649ZM65.0859 157.649L64.7323 158.003L65.0859 157.649ZM64.8819 138.033C64.8819 137.505 65.0635 137.067 65.4394 136.691L64.7323 135.984C64.1696 136.547 63.8819 137.239 63.8819 138.033H64.8819ZM65.4394 136.691C65.8154 136.315 66.2537 136.133 66.7819 136.133V135.133C65.9874 135.133 65.295 135.421 64.7323 135.984L65.4394 136.691ZM66.7819 136.133H72.1579V135.133H66.7819V136.133ZM72.1579 136.133C73.186 136.133 74.11 136.315 74.9369 136.669L75.3308 135.75C74.3657 135.336 73.3057 135.133 72.1579 135.133V136.133ZM74.9501 136.674C75.8095 137.014 76.5289 137.48 77.1163 138.067L77.8234 137.36C77.1309 136.667 76.2929 136.13 75.3177 135.744L74.9501 136.674ZM77.1163 138.067C77.7099 138.661 78.1755 139.353 78.5137 140.149L79.434 139.758C79.0469 138.847 78.5099 138.046 77.8234 137.36L77.1163 138.067ZM78.5137 140.149C78.8492 140.938 79.0179 141.778 79.0179 142.673H80.0179C80.0179 141.649 79.8239 140.675 79.434 139.758L78.5137 140.149ZM79.0179 142.673C79.0179 143.569 78.8492 144.409 78.5137 145.198L79.434 145.589C79.8239 144.672 80.0179 143.698 80.0179 142.673H79.0179ZM78.5137 145.198C78.1755 145.994 77.7099 146.686 77.1163 147.28L77.8234 147.987C78.5099 147.301 79.0469 146.5 79.434 145.589L78.5137 145.198ZM77.1163 147.28C76.5267 147.87 75.8041 148.347 74.9408 148.708L75.3269 149.631C76.2983 149.224 77.1331 148.677 77.8234 147.987L77.1163 147.28ZM74.9463 148.706C74.1169 149.042 73.1896 149.213 72.1579 149.213V150.213C73.3021 150.213 74.3588 150.023 75.3215 149.633L74.9463 148.706ZM72.1579 149.213H72.0619V150.213H72.1579V149.213ZM72.0619 149.213C71.5716 149.213 71.1617 149.05 70.8067 148.711L70.1171 149.436C70.658 149.951 71.3148 150.213 72.0619 150.213V149.213ZM70.8239 148.729C70.4858 148.374 70.3219 147.964 70.3219 147.473H69.3219C69.3219 148.221 69.5846 148.877 70.0998 149.418L70.8239 148.729ZM70.3219 147.473C70.3219 146.984 70.4852 146.589 70.8154 146.259L70.1083 145.552C69.5853 146.075 69.3219 146.726 69.3219 147.473H70.3219ZM70.8154 146.259C71.1722 145.902 71.5794 145.733 72.0619 145.733V144.733C71.3071 144.733 70.6476 145.013 70.1083 145.552L70.8154 146.259ZM72.0775 145.733C72.8895 145.708 73.5964 145.398 74.1754 144.819L73.4683 144.112C73.066 144.514 72.5995 144.716 72.0463 144.734L72.0775 145.733ZM74.1754 144.819C74.7614 144.233 75.0579 143.508 75.0579 142.673H74.0579C74.0579 143.247 73.8637 143.717 73.4683 144.112L74.1754 144.819ZM75.0579 142.673C75.0579 141.832 74.7454 141.105 74.1358 140.52L73.4439 141.242C73.8583 141.64 74.0579 142.107 74.0579 142.673H75.0579ZM74.1509 140.536C73.5667 139.926 72.8393 139.613 71.9979 139.613V140.613C72.5645 140.613 73.0317 140.813 73.4289 141.227L74.1509 140.536ZM71.9979 139.613H69.1819V140.613H71.9979V139.613ZM68.6819 140.113V155.953H69.6819V140.113H68.6819ZM68.6819 155.953C68.6819 156.482 68.5003 156.92 68.1243 157.296L68.8314 158.003C69.3941 157.44 69.6819 156.748 69.6819 155.953H68.6819ZM68.1243 157.296C67.7484 157.672 67.3101 157.853 66.7819 157.853V158.853C67.5764 158.853 68.2687 158.566 68.8314 158.003L68.1243 157.296ZM66.7819 157.853C66.2537 157.853 65.8154 157.672 65.4394 157.296L64.7323 158.003C65.295 158.566 65.9874 158.853 66.7819 158.853V157.853ZM65.4394 157.296C65.0635 156.92 64.8819 156.482 64.8819 155.953H63.8819C63.8819 156.748 64.1696 157.44 64.7323 158.003L65.4394 157.296ZM64.8819 155.953V138.033H63.8819V155.953H64.8819ZM89.3974 157.457L89.2021 157.918L89.3974 157.457ZM85.7174 155.025L85.3601 155.375L85.3675 155.383L85.7174 155.025ZM83.2854 151.345L83.7457 151.15L83.2854 151.345ZM83.2854 142.321L83.7457 142.517L83.2854 142.321ZM85.7174 138.673L86.0709 139.027V139.027L85.7174 138.673ZM89.3974 136.209L89.2021 135.749L89.3974 136.209ZM98.4534 136.209L98.2556 136.669L98.2581 136.67L98.4534 136.209ZM102.133 138.673L101.78 139.027L101.783 139.031L102.133 138.673ZM102.133 155.025L102.483 155.383L102.487 155.379L102.133 155.025ZM98.4534 157.457L98.2581 156.997L98.2556 156.998L98.4534 157.457ZM96.5014 153.201L96.6998 153.66L96.7056 153.658L96.5014 153.201ZM98.6134 151.729L98.9731 152.077L98.9789 152.071L98.6134 151.729ZM100.021 149.521L99.5588 149.332L100.021 149.521ZM100.021 144.145L99.5588 144.335V144.335L100.021 144.145ZM98.6134 141.969L98.2478 142.311L98.2537 142.317L98.6134 141.969ZM96.5014 140.497L96.2926 140.952L96.2999 140.955L96.3074 140.958L96.5014 140.497ZM91.3494 140.497L91.5478 140.956L91.5536 140.954L91.3494 140.497ZM89.2694 141.969L89.6291 142.317L89.6349 142.311L89.2694 141.969ZM87.8614 149.521L87.3988 149.711L87.8614 149.521ZM89.2694 151.729L88.9038 152.071L88.9097 152.077L89.2694 151.729ZM91.3494 153.201L91.1406 153.656L91.1479 153.659L91.1553 153.662L91.3494 153.201ZM93.9414 157.853C92.383 157.853 90.9352 157.567 89.5927 156.997L89.2021 157.918C90.6755 158.543 92.257 158.853 93.9414 158.853V157.853ZM89.5927 156.997C88.2395 156.423 87.066 155.647 86.0673 154.668L85.3675 155.383C86.4595 156.452 87.7392 157.297 89.2021 157.918L89.5927 156.997ZM86.0746 154.676C85.0962 153.677 84.3197 152.503 83.7457 151.15L82.8251 151.541C83.4457 153.004 84.2905 154.283 85.3602 155.375L86.0746 154.676ZM83.7457 151.15C83.1757 149.807 82.8894 148.37 82.8894 146.833H81.8894C81.8894 148.497 82.2003 150.068 82.8251 151.541L83.7457 151.15ZM82.8894 146.833C82.8894 145.297 83.1757 143.86 83.7457 142.517L82.8251 142.126C82.2003 143.599 81.8894 145.17 81.8894 146.833H82.8894ZM83.7457 142.517C84.3193 141.165 85.0949 140.003 86.0709 139.027L85.3638 138.32C84.2919 139.392 83.4461 140.662 82.8251 142.126L83.7457 142.517ZM86.0709 139.027C87.0693 138.029 88.2417 137.243 89.5927 136.67L89.2021 135.749C87.7371 136.371 86.4561 137.228 85.3638 138.32L86.0709 139.027ZM89.5927 136.67C90.9352 136.1 92.383 135.813 93.9414 135.813V134.813C92.257 134.813 90.6755 135.124 89.2021 135.749L89.5927 136.67ZM93.9414 135.813C95.4998 135.813 96.9359 136.1 98.2556 136.669L98.6512 135.75C97.1975 135.124 95.6256 134.813 93.9414 134.813V135.813ZM98.2581 136.67C99.6091 137.243 100.781 138.029 101.78 139.027L102.487 138.32C101.395 137.228 100.114 136.371 98.6487 135.749L98.2581 136.67ZM101.783 139.031C102.78 140.006 103.564 141.167 104.137 142.517L105.058 142.126C104.436 140.66 103.578 139.389 102.483 138.316L101.783 139.031ZM104.137 142.517C104.707 143.86 104.993 145.297 104.993 146.833H105.993C105.993 145.17 105.682 143.599 105.058 142.126L104.137 142.517ZM104.993 146.833C104.993 148.37 104.707 149.807 104.137 151.15L105.058 151.541C105.682 150.068 105.993 148.497 105.993 146.833H104.993ZM104.137 151.15C103.564 152.501 102.778 153.674 101.78 154.672L102.487 155.379C103.579 154.287 104.436 153.006 105.058 151.541L104.137 151.15ZM101.783 154.668C100.785 155.647 99.6112 156.423 98.2581 156.997L98.6487 157.918C100.112 157.297 101.391 156.452 102.483 155.383L101.783 154.668ZM98.2556 156.998C96.9359 157.567 95.4998 157.853 93.9414 157.853V158.853C95.6256 158.853 97.1975 158.543 98.6512 157.917L98.2556 156.998ZM93.9414 154.213C94.9223 154.213 95.8437 154.031 96.6998 153.66L96.3029 152.743C95.5803 153.055 94.7951 153.213 93.9414 153.213V154.213ZM96.7056 153.658C97.5726 153.27 98.3299 152.743 98.9731 152.077L98.2537 151.382C97.7022 151.953 97.0515 152.408 96.2972 152.745L96.7056 153.658ZM98.9789 152.071C99.6186 151.385 100.12 150.598 100.484 149.711L99.5588 149.332C99.2398 150.109 98.8028 150.794 98.2478 151.388L98.9789 152.071ZM100.484 149.711C100.852 148.815 101.033 147.854 101.033 146.833H100.033C100.033 147.733 99.8738 148.564 99.5588 149.332L100.484 149.711ZM101.033 146.833C101.033 145.813 100.852 144.852 100.484 143.956L99.5588 144.335C99.8738 145.103 100.033 145.934 100.033 146.833H101.033ZM100.484 143.956C100.12 143.068 99.6164 142.288 98.9731 141.622L98.2537 142.317C98.8051 142.888 99.2404 143.559 99.5588 144.335L100.484 143.956ZM98.9789 141.628C98.3332 140.937 97.5707 140.405 96.6954 140.037L96.3074 140.958C97.0534 141.272 97.6988 141.722 98.2478 142.311L98.9789 141.628ZM96.7101 140.043C95.8517 139.649 94.9266 139.453 93.9414 139.453V140.453C94.7908 140.453 95.5724 140.621 96.2926 140.952L96.7101 140.043ZM93.9414 139.453C92.956 139.453 92.0222 139.649 91.1452 140.041L91.5536 140.954C92.2979 140.621 93.092 140.453 93.9414 140.453V139.453ZM91.1509 140.039C90.2972 140.408 89.5473 140.939 88.9038 141.628L89.6349 142.311C90.1861 141.72 90.8229 141.27 91.5478 140.956L91.1509 140.039ZM88.9097 141.622C88.2664 142.288 87.763 143.068 87.3988 143.956L88.324 144.335C88.6424 143.559 89.0777 142.888 89.6291 142.317L88.9097 141.622ZM87.3988 143.956C87.0311 144.852 86.8494 145.813 86.8494 146.833H87.8494C87.8494 145.934 88.009 145.103 88.324 144.335L87.3988 143.956ZM86.8494 146.833C86.8494 147.854 87.0311 148.815 87.3988 149.711L88.324 149.332C88.009 148.564 87.8494 147.733 87.8494 146.833H86.8494ZM87.3988 149.711C87.7624 150.598 88.2642 151.385 88.9038 152.071L89.6349 151.388C89.0799 150.794 88.643 150.109 88.324 149.332L87.3988 149.711ZM88.9097 152.077C89.5507 152.741 90.2953 153.267 91.1406 153.656L91.5581 152.747C90.8247 152.41 90.1827 151.956 89.6291 151.382L88.9097 152.077ZM91.1553 153.662C92.0301 154.031 92.9603 154.213 93.9414 154.213V153.213C93.0878 153.213 92.29 153.055 91.5434 152.741L91.1553 153.662ZM112.981 157.841L112.79 158.303L112.796 158.306L112.803 158.309L112.981 157.841ZM110.709 156.529L111.021 156.139L110.709 156.529ZM109.205 154.865L108.771 155.114L108.778 155.125L109.205 154.865ZM109.397 151.537L109.044 151.184L109.397 151.537ZM112.277 151.153L111.987 151.56L112.277 151.153ZM113.045 151.921L113.455 151.635L113.452 151.631L113.045 151.921ZM113.493 152.593L113.071 152.862L113.08 152.875L113.089 152.888L113.493 152.593ZM114.037 153.233L113.684 153.587L113.693 153.596L113.703 153.605L114.037 153.233ZM114.805 153.713L114.608 154.173L114.622 154.179L114.637 154.184L114.805 153.713ZM118.197 150.353L117.765 150.605L117.773 150.618L117.781 150.631L118.197 150.353ZM117.557 149.681L117.257 150.081L117.265 150.087L117.273 150.093L117.557 149.681ZM116.597 149.169L116.407 149.632L116.416 149.635L116.597 149.169ZM115.445 148.753L115.287 149.228L115.295 149.23L115.445 148.753ZM113.813 148.209L113.971 147.735L113.961 147.732L113.813 148.209ZM111.989 147.473L111.746 147.911L111.756 147.916L111.766 147.921L111.989 147.473ZM110.421 146.257L110.052 146.595L110.06 146.603L110.421 146.257ZM109.269 144.401L108.8 144.576L108.803 144.584L108.807 144.592L109.269 144.401ZM109.397 139.185L109.849 139.399L109.851 139.394L109.397 139.185ZM110.901 137.137L110.567 136.766V136.766L110.901 137.137ZM113.141 135.793L112.966 135.325L113.141 135.793ZM118.741 135.825L118.555 136.29L118.741 135.825ZM120.885 137.073L120.561 137.454L120.568 137.46L120.885 137.073ZM122.261 138.641L121.828 138.891L121.832 138.899L122.261 138.641ZM119.221 142.193L118.921 142.593L118.929 142.599L118.937 142.605L119.221 142.193ZM118.485 141.489L118.09 141.796L118.097 141.805L118.103 141.812L118.485 141.489ZM118.037 140.913L117.628 141.2L117.635 141.211L117.642 141.22L118.037 140.913ZM117.525 140.369L117.193 140.743L117.205 140.754L117.218 140.764L117.525 140.369ZM116.821 139.953L116.629 140.415L116.642 140.42L116.821 139.953ZM114.293 140.433L113.948 140.071L113.94 140.08L114.293 140.433ZM114.421 143.537L114.132 143.945L114.138 143.95L114.144 143.954L114.421 143.537ZM116.181 144.369L116.336 143.894L116.335 143.894L116.181 144.369ZM117.557 144.817L117.402 145.293L117.404 145.293L117.557 144.817ZM121.397 146.801L121.051 147.162L121.058 147.169L121.397 146.801ZM122.741 148.753L122.282 148.952L122.284 148.957L122.741 148.753ZM122.677 154.321L123.129 154.536L123.131 154.531L122.677 154.321ZM121.109 156.433L121.444 156.805L121.109 156.433ZM118.773 157.841L118.951 158.309L118.773 157.841ZM115.893 157.853C114.903 157.853 113.993 157.692 113.159 157.374L112.803 158.309C113.761 158.674 114.792 158.853 115.893 158.853V157.853ZM113.173 157.38C112.335 157.032 111.62 156.618 111.021 156.139L110.397 156.92C111.079 157.465 111.878 157.925 112.79 158.303L113.173 157.38ZM111.021 156.139C110.419 155.657 109.96 155.145 109.633 154.606L108.778 155.125C109.176 155.78 109.719 156.378 110.397 156.92L111.021 156.139ZM109.639 154.617C109.325 154.067 109.193 153.609 109.193 153.233H108.193C108.193 153.839 108.403 154.469 108.771 155.114L109.639 154.617ZM109.193 153.233C109.193 152.705 109.375 152.267 109.751 151.891L109.044 151.184C108.481 151.747 108.193 152.439 108.193 153.233H109.193ZM109.751 151.891C110.127 151.515 110.565 151.333 111.093 151.333V150.333C110.299 150.333 109.606 150.621 109.044 151.184L109.751 151.891ZM111.093 151.333C111.514 151.333 111.797 151.425 111.987 151.56L112.568 150.747C112.16 150.455 111.653 150.333 111.093 150.333V151.333ZM111.987 151.56C112.24 151.742 112.457 151.958 112.638 152.212L113.452 151.631C113.207 151.287 112.911 150.992 112.568 150.747L111.987 151.56ZM112.636 152.208C112.78 152.415 112.926 152.633 113.071 152.862L113.915 152.325C113.762 152.085 113.609 151.854 113.455 151.635L112.636 152.208ZM113.089 152.888C113.274 153.142 113.472 153.375 113.684 153.587L114.391 152.88C114.218 152.708 114.054 152.514 113.897 152.299L113.089 152.888ZM113.703 153.605C113.962 153.838 114.266 154.026 114.608 154.173L115.002 153.254C114.747 153.145 114.539 153.013 114.372 152.862L113.703 153.605ZM114.637 154.184C115.005 154.316 115.428 154.373 115.893 154.373V153.373C115.505 153.373 115.203 153.325 114.973 153.243L114.637 154.184ZM115.893 154.373C116.744 154.373 117.482 154.08 118.071 153.491L117.364 152.784C116.971 153.176 116.493 153.373 115.893 153.373V154.373ZM118.071 153.491C118.66 152.902 118.953 152.165 118.953 151.313H117.953C117.953 151.913 117.756 152.392 117.364 152.784L118.071 153.491ZM118.953 151.313C118.953 150.855 118.851 150.433 118.613 150.076L117.781 150.631C117.885 150.786 117.953 151.004 117.953 151.313H118.953ZM118.629 150.102C118.438 149.774 118.171 149.498 117.842 149.27L117.273 150.093C117.498 150.249 117.658 150.421 117.765 150.605L118.629 150.102ZM117.857 149.281C117.556 149.056 117.193 148.865 116.778 148.703L116.416 149.635C116.769 149.773 117.046 149.923 117.257 150.081L117.857 149.281ZM116.787 148.707C116.411 148.552 116.013 148.409 115.596 148.277L115.295 149.23C115.688 149.354 116.058 149.488 116.407 149.632L116.787 148.707ZM115.603 148.279L113.971 147.735L113.655 148.684L115.287 149.228L115.603 148.279ZM113.961 147.732C113.369 147.548 112.787 147.313 112.213 147.026L111.766 147.921C112.386 148.231 113.02 148.487 113.665 148.687L113.961 147.732ZM112.232 147.036C111.701 146.742 111.218 146.367 110.782 145.912L110.06 146.603C110.563 147.129 111.125 147.565 111.746 147.911L112.232 147.036ZM110.79 145.92C110.365 145.456 110.011 144.889 109.731 144.211L108.807 144.592C109.125 145.365 109.539 146.035 110.053 146.595L110.79 145.92ZM109.738 144.227C109.487 143.552 109.353 142.708 109.353 141.681H108.353C108.353 142.789 108.497 143.758 108.8 144.576L109.738 144.227ZM109.353 141.681C109.353 140.855 109.52 140.097 109.849 139.399L108.945 138.972C108.549 139.81 108.353 140.716 108.353 141.681H109.353ZM109.851 139.394C110.186 138.666 110.647 138.039 111.236 137.509L110.567 136.766C109.876 137.388 109.334 138.126 108.943 138.977L109.851 139.394ZM111.236 137.509C111.826 136.977 112.518 136.561 113.317 136.262L112.966 135.325C112.057 135.666 111.256 136.146 110.567 136.766L111.236 137.509ZM113.317 136.262C114.11 135.964 114.967 135.813 115.893 135.813V134.813C114.856 134.813 113.879 134.983 112.966 135.325L113.317 136.262ZM115.893 135.813C116.884 135.813 117.769 135.975 118.555 136.29L118.927 135.361C118.007 134.993 116.993 134.813 115.893 134.813V135.813ZM118.555 136.29C119.369 136.615 120.034 137.005 120.561 137.454L121.209 136.693C120.584 136.16 119.82 135.719 118.927 135.361L118.555 136.29ZM120.568 137.46C121.128 137.92 121.544 138.398 121.828 138.891L122.694 138.392C122.339 137.775 121.837 137.208 121.202 136.687L120.568 137.46ZM121.832 138.899C122.126 139.388 122.241 139.778 122.241 140.081H123.241C123.241 139.532 123.036 138.962 122.69 138.384L121.832 138.899ZM122.241 140.081C122.241 140.61 122.06 141.048 121.684 141.424L122.391 142.131C122.953 141.568 123.241 140.876 123.241 140.081H122.241ZM121.684 141.424C121.308 141.8 120.869 141.981 120.341 141.981V142.981C121.136 142.981 121.828 142.694 122.391 142.131L121.684 141.424ZM120.341 141.981C119.935 141.981 119.673 141.898 119.506 141.782L118.937 142.605C119.324 142.873 119.809 142.981 120.341 142.981V141.981ZM119.521 141.793C119.299 141.627 119.08 141.419 118.867 141.167L118.103 141.812C118.359 142.115 118.631 142.376 118.921 142.593L119.521 141.793ZM118.88 141.183C118.781 141.056 118.754 141.021 118.656 140.895C118.636 140.869 118.62 140.848 118.6 140.823C118.58 140.797 118.564 140.776 118.544 140.751C118.524 140.725 118.508 140.704 118.488 140.679C118.468 140.653 118.452 140.632 118.432 140.607L117.642 141.22C117.741 141.347 117.768 141.382 117.866 141.508C117.886 141.534 117.902 141.555 117.922 141.58C117.942 141.606 117.958 141.627 117.978 141.652C117.998 141.678 118.014 141.699 118.034 141.724C118.054 141.75 118.07 141.771 118.09 141.796L118.88 141.183ZM118.447 140.627C118.271 140.375 118.066 140.157 117.832 139.975L117.218 140.764C117.368 140.881 117.505 141.025 117.628 141.2L118.447 140.627ZM117.857 139.996C117.614 139.779 117.325 139.612 117.001 139.487L116.642 140.42C116.872 140.509 117.052 140.618 117.193 140.743L117.857 139.996ZM117.013 139.492C116.681 139.353 116.302 139.293 115.893 139.293V140.293C116.209 140.293 116.449 140.34 116.629 140.415L117.013 139.492ZM115.893 139.293C115.146 139.293 114.489 139.556 113.948 140.071L114.638 140.796C114.993 140.457 115.403 140.293 115.893 140.293V139.293ZM113.94 140.08C113.417 140.603 113.153 141.254 113.153 142.001H114.153C114.153 141.512 114.316 141.117 114.647 140.787L113.94 140.08ZM113.153 142.001C113.153 142.815 113.48 143.483 114.132 143.945L114.71 143.129C114.339 142.866 114.153 142.511 114.153 142.001H113.153ZM114.144 143.954C114.699 144.323 115.328 144.62 116.028 144.845L116.335 143.894C115.712 143.693 115.168 143.434 114.698 143.121L114.144 143.954ZM116.026 144.845L117.402 145.293L117.712 144.342L116.336 143.894L116.026 144.845ZM117.404 145.293C118.048 145.501 118.704 145.751 119.373 146.044L119.774 145.127C119.077 144.823 118.389 144.56 117.711 144.342L117.404 145.293ZM119.373 146.044C120.002 146.319 120.56 146.691 121.051 147.162L121.743 146.441C121.167 145.888 120.51 145.449 119.774 145.127L119.373 146.044ZM121.058 147.169C121.555 147.627 121.965 148.218 122.282 148.952L123.2 148.555C122.835 147.711 122.349 147 121.736 146.434L121.058 147.169ZM122.284 148.957C122.589 149.642 122.753 150.527 122.753 151.633H123.753C123.753 150.436 123.576 149.401 123.198 148.55L122.284 148.957ZM122.753 151.633C122.753 152.525 122.575 153.349 122.223 154.112L123.131 154.531C123.547 153.63 123.753 152.662 123.753 151.633H122.753ZM122.225 154.107C121.869 154.859 121.386 155.51 120.774 156.062L121.444 156.805C122.155 156.163 122.717 155.405 123.129 154.536L122.225 154.107ZM120.774 156.062C120.162 156.615 119.438 157.053 118.595 157.374L118.951 158.309C119.901 157.947 120.734 157.446 121.444 156.805L120.774 156.062ZM118.595 157.374C117.76 157.692 116.86 157.853 115.893 157.853V158.853C116.974 158.853 117.995 158.673 118.951 158.309L118.595 157.374Z" fill="#259BBF"/>
</g>
<defs>
<linearGradient id="paint0_linear_12_3" x1="82.7653" y1="46.2072" x2="121.543" y2="82.8513" gradientUnits="userSpaceOnUse">
<stop stop-color="#292763"/>
<stop offset="1" stop-color="#259BBF"/>
</linearGradient>
<linearGradient id="paint1_linear_12_3" x1="-21.5595" y1="-64.4933" x2="121.527" y2="153.566" gradientUnits="userSpaceOnUse">
<stop offset="0.23" stop-color="#292763"/>
<stop offset="0.38" stop-color="#7168A1"/>
<stop offset="0.51" stop-color="#877DBB"/>
<stop offset="0.63" stop-color="#259BBF"/>
<stop offset="0.96" stop-color="#E5E5E5"/>
</linearGradient>
<linearGradient id="paint2_linear_12_3" x1="39.5378" y1="36.0126" x2="136.517" y2="125.142" gradientUnits="userSpaceOnUse">
<stop offset="0.23" stop-color="#292763"/>
<stop offset="0.38" stop-color="#7168A1"/>
<stop offset="0.51" stop-color="#877DBB"/>
<stop offset="0.63" stop-color="#259BBF"/>
<stop offset="0.96" stop-color="#E5E5E5"/>
</linearGradient>
<clipPath id="clip0_12_3">
<rect width="187" height="169" fill="white"/>
</clipPath>
</defs>
</svg>
